<svg width="170" height="170" viewBox="0 0 170 170" fill="none" xmlns="http://www.w3.org/2000/svg">
<rect x="4.5" y="4.5" width="161" height="161" stroke="white" stroke-width="9"/>
<path d="M17.984 61.544C17.984 53.2667 20.0747 47.2933 24.256 43.624C28.4373 39.9547 35.2213 38.12 44.608 38.12C51.1787 38.12 56.4693 39.8267 60.48 43.24C64.4907 46.6533 67.392 51.8587 69.184 58.856L57.28 67.816H51.008L64.832 57.448C63.04 51.7307 60.4373 47.72 57.024 45.416C53.696 43.112 49.5573 41.96 44.608 41.96C41.1947 41.96 38.2933 42.1733 35.904 42.6C33.6 43.0267 31.2533 43.88 28.864 45.16C26.56 46.3547 24.8107 48.3173 23.616 51.048C22.4213 53.7787 21.824 57.2773 21.824 61.544C21.824 65.2987 23.5307 68.6267 26.944 71.528C30.4427 74.4293 34.6667 76.904 39.616 78.952C44.5653 81 49.5147 83.0907 54.464 85.224C59.4987 87.3573 63.7227 90.088 67.136 93.416C70.6347 96.744 72.384 100.584 72.384 104.936C72.384 113.469 70.2507 119.827 65.984 124.008C61.8027 128.189 54.592 130.28 44.352 130.28C35.9893 130.28 29.4187 128.616 24.64 125.288C19.8613 121.875 16.576 116.627 14.784 109.544L18.368 108.008C20.0747 114.92 22.976 119.741 27.072 122.472C31.2533 125.117 37.0133 126.44 44.352 126.44C52.544 126.44 58.6027 124.861 62.528 121.704C66.5387 118.547 68.544 112.957 68.544 104.936C68.544 101.181 66.7947 97.8533 63.296 94.952C59.8827 92.0507 55.6587 89.576 50.624 87.528C45.6747 85.48 40.7253 83.3893 35.776 81.256C30.8267 79.1227 26.6027 76.392 23.104 73.064C19.6907 69.736 17.984 65.896 17.984 61.544ZM101.894 39.4H150.918V90.472C150.918 104.125 148.571 114.195 143.878 120.68C139.185 127.08 131.59 130.28 121.094 130.28C110.598 130.28 103.003 127.08 98.31 120.68C93.6167 114.195 91.27 104.125 91.27 90.472V39.4H95.11V90.472C95.11 97.5547 95.7073 103.528 96.902 108.392C98.0967 113.171 99.8887 116.84 102.278 119.4C104.667 121.96 107.355 123.795 110.342 124.904C113.329 125.928 116.913 126.44 121.094 126.44C125.275 126.44 128.859 125.928 131.846 124.904C134.833 123.795 137.521 121.96 139.91 119.4C142.299 116.84 144.091 113.171 145.286 108.392C146.481 103.528 147.078 97.5547 147.078 90.472V43.24H101.894V39.4Z" fill="white"/>
<path d="M24.256 43.624L22.2772 41.3691L22.2772 41.3691L24.256 43.624ZM60.48 43.24L58.5356 45.5246L58.5356 45.5246L60.48 43.24ZM69.184 58.856L70.9881 61.2529L72.5865 60.0498L72.0902 58.1117L69.184 58.856ZM57.28 67.816V70.816H58.2829L59.0841 70.2129L57.28 67.816ZM51.008 67.816L49.208 65.416L42.008 70.816H51.008V67.816ZM64.832 57.448L66.632 59.848L68.3292 58.5751L67.6947 56.5507L64.832 57.448ZM57.024 45.416L55.3164 47.8826L55.3309 47.8926L55.3456 47.9025L57.024 45.416ZM35.904 42.6L35.3766 39.6467L35.3672 39.6484L35.3577 39.6502L35.904 42.6ZM28.864 45.16L30.245 47.8233L30.2629 47.814L30.2807 47.8044L28.864 45.16ZM23.616 51.048L26.3645 52.2505L26.3645 52.2505L23.616 51.048ZM26.944 71.528L25.0011 73.8138L25.015 73.8256L25.029 73.8373L26.944 71.528ZM39.616 78.952L40.7631 76.1799L40.7631 76.1799L39.616 78.952ZM54.464 85.224L53.2765 87.979L53.285 87.9826L53.2936 87.9863L54.464 85.224ZM67.136 93.416L65.0417 95.564L65.055 95.5769L65.0684 95.5897L67.136 93.416ZM65.984 124.008L63.8842 121.865L63.8734 121.876L63.8627 121.887L65.984 124.008ZM24.64 125.288L22.8963 127.729L22.9108 127.74L22.9255 127.75L24.64 125.288ZM14.784 109.544L13.6022 106.787L11.2472 107.796L11.8756 110.28L14.784 109.544ZM18.368 108.008L21.2805 107.289L20.4336 103.859L17.1862 105.251L18.368 108.008ZM27.072 122.472L25.4079 124.968L25.4378 124.988L25.4681 125.007L27.072 122.472ZM62.528 121.704L60.6723 119.347L60.66 119.357L60.6477 119.366L62.528 121.704ZM63.296 94.952L61.3531 97.2378L61.367 97.2496L61.381 97.2613L63.296 94.952ZM50.624 87.528L49.4769 90.3001L49.4853 90.3035L49.4936 90.3069L50.624 87.528ZM23.104 73.064L21.0097 75.212L21.023 75.2249L21.0364 75.2377L23.104 73.064ZM20.984 61.544C20.984 53.7037 22.9659 48.7474 26.2348 45.8789L22.2772 41.3691C17.1834 45.8392 14.984 52.8296 14.984 61.544H20.984ZM26.2348 45.8789C29.6001 42.9256 35.4875 41.12 44.608 41.12V35.12C34.9552 35.12 27.2746 36.9837 22.2772 41.3691L26.2348 45.8789ZM44.608 41.12C50.6483 41.12 55.1918 42.6788 58.5356 45.5246L62.4244 40.9554C57.7469 36.9745 51.709 35.12 44.608 35.12V41.12ZM58.5356 45.5246C61.9279 48.4116 64.5838 52.9856 66.2778 59.6003L72.0902 58.1117C70.2002 50.7317 67.0535 44.895 62.4244 40.9554L58.5356 45.5246ZM67.3799 56.4591L55.4759 65.4191L59.0841 70.2129L70.9881 61.2529L67.3799 56.4591ZM57.28 64.816H51.008V70.816H57.28V64.816ZM52.808 70.216L66.632 59.848L63.032 55.048L49.208 65.416L52.808 70.216ZM67.6947 56.5507C65.789 50.4707 62.8854 45.753 58.7024 42.9294L55.3456 47.9025C57.9892 49.687 60.291 52.9906 61.9693 58.3453L67.6947 56.5507ZM58.7316 42.9494C54.7995 40.2272 50.0299 38.96 44.608 38.96V44.96C49.0848 44.96 52.5925 45.9968 55.3164 47.8826L58.7316 42.9494ZM44.608 38.96C41.083 38.96 37.9942 39.1793 35.3766 39.6467L36.4314 45.5533C38.5925 45.1674 41.3064 44.96 44.608 44.96V38.96ZM35.3577 39.6502C32.7062 40.1412 30.0675 41.1119 27.4473 42.5156L30.2807 47.8044C32.4392 46.6481 34.4938 45.9122 36.4503 45.5498L35.3577 39.6502ZM27.483 42.4967C24.4806 44.0536 22.2944 46.584 20.8675 49.8455L26.3645 52.2505C27.3269 50.0506 28.6394 48.6558 30.245 47.8233L27.483 42.4967ZM20.8675 49.8455C19.4516 53.0819 18.824 57.0285 18.824 61.544H24.824C24.824 57.5262 25.3911 54.4754 26.3645 52.2505L20.8675 49.8455ZM18.824 61.544C18.824 66.3502 21.0598 70.4637 25.0011 73.8138L28.8869 69.2422C26.0016 66.7896 24.824 64.2471 24.824 61.544H18.824ZM25.029 73.8373C28.796 76.9611 33.2901 79.5811 38.4689 81.724L40.7631 76.1799C36.0433 74.2269 32.0893 71.8975 28.859 69.2187L25.029 73.8373ZM38.4689 81.724C43.4047 83.7664 48.3405 85.8514 53.2765 87.979L55.6515 82.469C50.6888 80.3299 45.726 78.2336 40.7631 76.1799L38.4689 81.724ZM53.2936 87.9863C58.0347 89.9952 61.9317 92.5318 65.0417 95.564L69.2303 91.268C65.5136 87.6442 60.9627 84.7195 55.6344 82.4617L53.2936 87.9863ZM65.0684 95.5897C68.0437 98.4199 69.384 101.5 69.384 104.936H75.384C75.384 99.6679 73.2256 95.0681 69.2036 91.2423L65.0684 95.5897ZM69.384 104.936C69.384 113.012 67.3662 118.453 63.8842 121.865L68.0838 126.151C73.1351 121.2 75.384 113.927 75.384 104.936H69.384ZM63.8627 121.887C60.5365 125.213 54.3375 127.28 44.352 127.28V133.28C54.8465 133.28 63.0689 131.166 68.1053 126.129L63.8627 121.887ZM44.352 127.28C36.3462 127.28 30.4543 125.681 26.3545 122.826L22.9255 127.75C28.383 131.551 35.6325 133.28 44.352 133.28V127.28ZM26.3837 122.847C22.3134 119.939 19.3541 115.376 17.6924 108.808L11.8756 110.28C13.7979 117.877 17.4092 123.81 22.8963 127.729L26.3837 122.847ZM15.9658 112.301L19.5498 110.765L17.1862 105.251L13.6022 106.787L15.9658 112.301ZM15.4555 108.727C17.2625 116.045 20.4592 121.669 25.4079 124.968L28.7361 119.976C25.4928 117.814 22.8869 113.795 21.2805 107.289L15.4555 108.727ZM25.4681 125.007C30.3082 128.069 36.7027 129.44 44.352 129.44V123.44C37.324 123.44 32.1985 122.165 28.6759 119.937L25.4681 125.007ZM44.352 129.44C52.8307 129.44 59.7063 127.824 64.4083 124.042L60.6477 119.366C57.499 121.899 52.2573 123.44 44.352 123.44V129.44ZM64.3837 124.061C69.4501 120.073 71.544 113.347 71.544 104.936H65.544C65.544 112.568 63.6272 117.021 60.6723 119.347L64.3837 124.061ZM71.544 104.936C71.544 100.1 69.2376 95.9819 65.211 92.6427L61.381 97.2613C64.3517 99.7248 65.544 102.262 65.544 104.936H71.544ZM65.2389 92.6662C61.5373 89.5198 57.0236 86.8925 51.7544 84.7491L49.4936 90.3069C54.2937 92.2595 58.2281 94.5816 61.3531 97.2378L65.2389 92.6662ZM51.7711 84.7559C46.8353 82.7136 41.8995 80.6286 36.9635 78.501L34.5885 84.011C39.5512 86.1501 44.514 88.2464 49.4769 90.3001L51.7711 84.7559ZM36.9635 78.501C32.302 76.4918 28.3855 73.9474 25.1716 70.8903L21.0364 75.2377C24.8198 78.8366 29.3513 81.7536 34.5885 84.011L36.9635 78.501ZM25.1983 70.916C22.3031 68.0931 20.984 65.0058 20.984 61.544H14.984C14.984 66.7862 17.0783 71.3789 21.0097 75.212L25.1983 70.916ZM101.894 39.4V36.4H98.894V39.4H101.894ZM150.918 39.4H153.918V36.4H150.918V39.4ZM143.878 120.68L146.297 122.454L146.303 122.446L146.308 122.439L143.878 120.68ZM98.31 120.68L95.8797 122.439L95.8852 122.446L95.8908 122.454L98.31 120.68ZM91.27 39.4V36.4H88.27V39.4H91.27ZM95.11 39.4H98.11V36.4H95.11V39.4ZM96.902 108.392L93.9886 109.108L93.9916 109.12L96.902 108.392ZM102.278 119.4L104.471 117.353L104.471 117.353L102.278 119.4ZM110.342 124.904L109.297 127.716L109.333 127.73L109.369 127.742L110.342 124.904ZM131.846 124.904L132.819 127.742L132.855 127.73L132.891 127.716L131.846 124.904ZM139.91 119.4L137.717 117.353L139.91 119.4ZM145.286 108.392L148.196 109.12L148.199 109.108L145.286 108.392ZM147.078 43.24H150.078V40.24H147.078V43.24ZM101.894 43.24H98.894V46.24H101.894V43.24ZM101.894 42.4H150.918V36.4H101.894V42.4ZM147.918 39.4V90.472H153.918V39.4H147.918ZM147.918 90.472C147.918 103.894 145.59 113.197 141.448 118.921L146.308 122.439C151.552 115.192 153.918 104.357 153.918 90.472H147.918ZM141.459 118.906C137.504 124.299 130.971 127.28 121.094 127.28V133.28C132.209 133.28 140.866 129.861 146.297 122.454L141.459 118.906ZM121.094 127.28C111.217 127.28 104.684 124.299 100.729 118.906L95.8908 122.454C101.322 129.861 109.979 133.28 121.094 133.28V127.28ZM100.74 118.921C96.5978 113.197 94.27 103.894 94.27 90.472H88.27C88.27 104.357 90.6356 115.192 95.8797 122.439L100.74 118.921ZM94.27 90.472V39.4H88.27V90.472H94.27ZM91.27 42.4H95.11V36.4H91.27V42.4ZM92.11 39.4V90.472H98.11V39.4H92.11ZM92.11 90.472C92.11 97.705 92.7182 103.935 93.9886 109.108L99.8154 107.676C98.6965 103.121 98.11 97.4043 98.11 90.472H92.11ZM93.9916 109.12C95.2622 114.202 97.2358 118.394 100.085 121.447L104.471 117.353C102.542 115.286 100.931 112.139 99.8124 107.664L93.9916 109.12ZM100.085 121.447C102.76 124.314 105.832 126.429 109.297 127.716L111.387 122.092C108.879 121.16 106.574 119.606 104.471 117.353L100.085 121.447ZM109.369 127.742C112.752 128.902 116.682 129.44 121.094 129.44V123.44C117.143 123.44 113.906 122.954 111.315 122.066L109.369 127.742ZM121.094 129.44C125.506 129.44 129.436 128.902 132.819 127.742L130.873 122.066C128.282 122.954 125.045 123.44 121.094 123.44V129.44ZM132.891 127.716C136.356 126.429 139.428 124.314 142.103 121.447L137.717 117.353C135.614 119.606 133.309 121.16 130.801 122.092L132.891 127.716ZM142.103 121.447C144.952 118.394 146.926 114.202 148.196 109.12L142.376 107.664C141.257 112.139 139.646 115.286 137.717 117.353L142.103 121.447ZM148.199 109.108C149.47 103.935 150.078 97.705 150.078 90.472H144.078C144.078 97.4043 143.492 103.121 142.373 107.676L148.199 109.108ZM150.078 90.472V43.24H144.078V90.472H150.078ZM147.078 40.24H101.894V46.24H147.078V40.24ZM104.894 43.24V39.4H98.894V43.24H104.894Z" fill="white"/>
</svg>
